<svg width="512" height="512" viewBox="0 0 512 512" xmlns="http://www.w3.org/2000/svg" role="img" aria-label="eFundi app icon">
  <defs>
    <linearGradient id="aiBg" x1="15%" y1="0%" x2="85%" y2="100%">
      <stop offset="0%" stop-color="#FF9A3C"/><stop offset="100%" stop-color="#E8501A"/>
    </linearGradient>
    <filter id="aiPinShadow" x="-30%" y="-20%" width="160%" height="160%">
      <feDropShadow dx="0" dy="12" stdDeviation="16" flood-color="#7A2606" flood-opacity="0.35"/>
    </filter>
  </defs>

  <!-- squircle badge -->
  <rect x="32" y="32" width="448" height="448" rx="112" fill="url(#aiBg)"/>
  <!-- soft top highlight -->
  <rect x="32" y="32" width="448" height="224" rx="112" fill="#FFFFFF" opacity="0.08"/>

  <!-- white location pin -->
  <g filter="url(#aiPinShadow)">
    <path d="M256 96 C190 96 137 149 137 215 C137 300 230 372 256 396 C282 372 375 300 375 215 C375 149 322 96 256 96 Z" fill="#FFFFFF"/>
  </g>
  <!-- inner orange disc -->
  <circle cx="256" cy="210" r="74" fill="url(#aiBg)"/>
  <!-- white wrench inside disc -->
  <g transform="translate(218 172) scale(3.1)"><path d="M15.5 2 C13 2 11 4 11 6.5 C11 7 11.1 7.5 11.3 7.9 L2.3 16.9 C2.1 17.1 2 17.5 2 18 C2 19.1 2.9 20 4 20 C4.5 20 4.8 19.9 5.1 19.7 L14.1 10.7 C14.5 10.9 15 11 15.5 11 C18 11 20 9 20 6.5 C20 6 19.9 5.5 19.7 5.1 L17 7.8 L15 7.2 L14.4 5.2 L17.1 2.5 C16.6 2.2 16.1 2 15.5 2 Z" fill="#FFFFFF"/></g>
</svg>
